<svg id="Layer_6" xmlns="http://www.w3.org/2000/svg" viewBox="0 0 100 100">
                    <path d="M50,36.68c-3.31,0-6-2.69-6-6v-10c0-3.31,2.69-6,6-6s6,2.69,6,6v10c0,3.31-2.69,6-6,6Z" />
                    <path
                      d="M72.27,45.9c-1.54,0-3.07-.59-4.24-1.76-2.34-2.34-2.34-6.14,0-8.49l7.07-7.07c2.34-2.34,6.14-2.34,8.49,0,2.34,2.34,2.34,6.14,0,8.49l-7.07,7.07c-1.17,1.17-2.71,1.76-4.24,1.76Z" />
                    <path d="M91.5,68.18h-10c-3.31,0-6-2.69-6-6s2.69-6,6-6h10c3.31,0,6,2.69,6,6s-2.69,6-6,6Z" />
                    <path d="M18.5,68.18H8.5c-3.31,0-6-2.69-6-6s2.69-6,6-6h10c3.31,0,6,2.69,6,6s-2.69,6-6,6Z" />
                    <path
                      d="M27.73,45.9c-1.54,0-3.07-.59-4.24-1.76l-7.07-7.07c-2.34-2.34-2.34-6.14,0-8.49,2.34-2.34,6.14-2.34,8.49,0l7.07,7.07c2.34,2.34,2.34,6.14,0,8.49-1.17,1.17-2.71,1.76-4.24,1.76Z" />
                    <path
                      d="M69.08,68.18c.6-1.89,.92-3.91,.92-6h0c0-11.05-8.95-20-20-20s-20,8.95-20,20h0c0,2.09,.32,4.11,.92,6h38.16Z" />
                    <path d="M91.75,85.32H8.25c-3.31,0-6-2.69-6-6s2.69-6,6-6H91.75c3.31,0,6,2.69,6,6s-2.69,6-6,6Z" />
                  </svg>