<svg id="Layer_2" xmlns="http://www.w3.org/2000/svg" viewBox="0 0 100 100">
                    <path d="M70,50c0-11.05-8.95-20-20-20s-20,8.95-20,20h0c0,11.05,8.95,20,20,20s20-8.95,20-20h0Z" />
                    <path d="M50,24.5c3.31,0,6-2.69,6-6V8.5c0-3.31-2.69-6-6-6s-6,2.69-6,6v10c0,3.31,2.69,6,6,6Z" />
                    <path
                      d="M72.27,33.73c1.54,0,3.07-.59,4.24-1.76l7.07-7.07c2.34-2.34,2.34-6.14,0-8.49-2.34-2.34-6.14-2.34-8.49,0l-7.07,7.07c-2.34,2.34-2.34,6.14,0,8.49,1.17,1.17,2.71,1.76,4.24,1.76Z" />
                    <path d="M91.5,44h-10c-3.31,0-6,2.69-6,6s2.69,6,6,6h10c3.31,0,6-2.69,6-6s-2.69-6-6-6Z" />
                    <path
                      d="M76.52,68.03c-2.34-2.34-6.14-2.34-8.48,0-2.34,2.34-2.34,6.14,0,8.48l7.07,7.07c1.17,1.17,2.71,1.76,4.24,1.76s3.07-.59,4.24-1.76c2.34-2.34,2.34-6.14,0-8.48l-7.07-7.07Z" />
                    <path d="M50,75.5c-3.31,0-6,2.69-6,6v10c0,3.31,2.69,6,6,6s6-2.69,6-6v-10c0-3.31-2.69-6-6-6Z" />
                    <path
                      d="M23.48,68.03l-7.07,7.07c-2.34,2.34-2.34,6.14,0,8.48,1.17,1.17,2.71,1.76,4.24,1.76s3.07-.59,4.24-1.76l7.07-7.07c2.34-2.34,2.34-6.14,0-8.48-2.34-2.34-6.14-2.34-8.48,0Z" />
                    <path d="M24.5,50c0-3.31-2.69-6-6-6H8.5c-3.31,0-6,2.69-6,6s2.69,6,6,6h10c3.31,0,6-2.69,6-6Z" />
                    <path
                      d="M23.48,31.97c1.17,1.17,2.71,1.76,4.24,1.76s3.07-.59,4.24-1.76c2.34-2.34,2.34-6.14,0-8.49l-7.07-7.07c-2.34-2.34-6.14-2.34-8.49,0-2.34,2.34-2.34,6.14,0,8.49l7.07,7.07Z" />
                  </svg>