<svg id="Layer_3" xmlns="http://www.w3.org/2000/svg" viewBox="0 0 100 100">
                    <path d="M50,45.25c-3.31,0-6-2.69-6-6v-10c0-3.31,2.69-6,6-6s6,2.69,6,6v10c0,3.31-2.69,6-6,6Z" />
                    <path
                      d="M72.27,54.48c-1.54,0-3.07-.59-4.24-1.76-2.34-2.34-2.34-6.14,0-8.49l7.07-7.07c2.34-2.34,6.14-2.34,8.49,0,2.34,2.34,2.34,6.14,0,8.49l-7.07,7.07c-1.17,1.17-2.71,1.76-4.24,1.76Z" />
                    <path d="M91.75,76.75H8.25c-3.31,0-6-2.69-6-6s2.69-6,6-6H91.75c3.31,0,6,2.69,6,6s-2.69,6-6,6Z" />
                    <path
                      d="M27.73,54.48c-1.54,0-3.07-.59-4.24-1.76l-7.07-7.07c-2.34-2.34-2.34-6.14,0-8.49,2.34-2.34,6.14-2.34,8.49,0l7.07,7.07c2.34,2.34,2.34,6.14,0,8.49-1.17,1.17-2.71,1.76-4.24,1.76Z" />
                  </svg>