<svg id="Layer_7" xmlns="http://www.w3.org/2000/svg" viewBox="0 0 100 100">
                    <path
                      d="M62.16,54.23c-11.05,0-20-8.95-20-20h0c0-1.18,.12-2.34,.32-3.47-7.23,3.01-12.32,10.14-12.32,18.47h0c0,11.05,8.95,20,20,20,9.86,0,18.04-7.14,19.68-16.53-2.37,.98-4.96,1.53-7.68,1.53Z" />
                    <path
                      d="M50,13c20.4,0,37,16.6,37,37s-16.6,37-37,37S13,70.4,13,50,29.6,13,50,13m0-10h0C24.04,3,3,24.04,3,50h0c0,25.96,21.04,47,47,47h0c25.96,0,47-21.04,47-47h0c0-25.96-21.04-47-47-47h0Z" />
                  </svg>