<svg id="Layer_4" xmlns="http://www.w3.org/2000/svg" viewBox="0 0 100 100">
                    <path d="M50,36.68c-3.31,0-6-2.69-6-6v-10c0-3.31,2.69-6,6-6s6,2.69,6,6v10c0,3.31-2.69,6-6,6Z" />
                    <path
                      d="M72.27,45.9c-1.54,0-3.07-.59-4.24-1.76-2.34-2.34-2.34-6.14,0-8.49l7.07-7.07c2.34-2.34,6.14-2.34,8.49,0,2.34,2.34,2.34,6.14,0,8.49l-7.07,7.07c-1.17,1.17-2.71,1.76-4.24,1.76Z" />
                    <path d="M91.5,68.18h-10c-3.31,0-6-2.69-6-6s2.69-6,6-6h10c3.31,0,6,2.69,6,6s-2.69,6-6,6Z" />
                    <path d="M18.5,68.18H8.5c-3.31,0-6-2.69-6-6s2.69-6,6-6h10c3.31,0,6,2.69,6,6s-2.69,6-6,6Z" />
                    <path
                      d="M27.73,45.9c-1.54,0-3.07-.59-4.24-1.76l-7.07-7.07c-2.34-2.34-2.34-6.14,0-8.49,2.34-2.34,6.14-2.34,8.49,0l7.07,7.07c2.34,2.34,2.34,6.14,0,8.49-1.17,1.17-2.71,1.76-4.24,1.76Z" />
                    <path d="M91.75,85.32H8.25c-3.31,0-6-2.69-6-6s2.69-6,6-6H91.75c3.31,0,6,2.69,6,6s-2.69,6-6,6Z" />
                    <path
                      d="M50,42.18c-11.05,0-20,8.95-20,20h0c0,2.09,.32,4.11,.92,6h38.16c.6-1.89,.92-3.91,.92-6h0c0-11.05-8.95-20-20-20Zm12.37,20.23c-.69,.83-1.69,1.27-2.7,1.27-.79,0-1.58-.26-2.23-.81l-7.44-6.17-7.44,6.17c-.65,.54-1.45,.81-2.23,.81-1.01,0-2-.43-2.7-1.27-1.23-1.49-1.03-3.69,.46-4.93l9.31-7.73c.75-.63,1.69-.88,2.6-.78,.9-.09,1.84,.16,2.59,.78l9.31,7.73c1.49,1.23,1.69,3.44,.46,4.93Z" />
                  </svg>